# xmcd
#
# Track frame offsets:
#	150
#	40480
#	65660
#	156719
#	192994
#
# Disc length: 2853 seconds
#
# Revision: 1
# Processed by: cddbd v1.5.2PL0 Copyright (c) Steve Scherf et al.
# Submitted via: audiograbber 1.83.01
#
DISCID=4b0b2305
DTITLE=Grateful Dead - 73-10-30 Kiel Auditorium, St Louis MO
DYEAR=1900
DGENRE=
TTITLE0=China Cat Sunflower
TTITLE1=I Know You Rider
TTITLE2=Playing In The Band
TTITLE3=Mississippi Half-Step
TTITLE4=Big River
EXTD=
EXTT0=
EXTT1=
EXTT2=
EXTT3=
EXTT4=
PLAYORDER=
